<?xml version="1.0" encoding="utf-8"?>
<!-- Svg Vector Icons : http://www.onlinewebfonts.com/icon -->
<!DOCTYPE svg PUBLIC "-//W3C//DTD SVG 1.1//EN" "http://www.w3.org/Graphics/SVG/1.1/DTD/svg11.dtd">
<svg version="1.1" xmlns="http://www.w3.org/2000/svg" xmlns:xlink="http://www.w3.org/1999/xlink" x="0px" y="0px" viewBox="0 0 1000 1000" enable-background="new 0 0 1000 1000" xml:space="preserve">
<metadata> Svg Vector Icons : http://www.onlinewebfonts.com/icon </metadata>
<g><g transform="translate(0.000000,460.000000) scale(0.100000,-0.100000)"><path d="M1799.7,3977c-17.2-13.4-55.5-67-86.1-118.7c-61.2-103.4-1077.6-1728.4-1410.7-2256.7C170.8,1391.1,100,1260.9,100,1226.5c0-42.1,486.2-656.5,2337.1-2949.6c1286.2-1594.4,2371.5-2938.1,2413.6-2987.8c65.1-80.4,84.2-91.9,149.3-91.9c65.1,0,84.2,11.5,149.3,90c42.1,51.7,1127.4,1395.3,2413.6,2989.8C9417.7,577.6,9900,1184.4,9900,1226.5c0,34.4-57.4,143.6-157,300.5c-229.7,363.7-1391.5,2220.3-1456.6,2331.3c-30.6,51.7-68.9,105.3-86.1,118.7C8152.5,4011.4,1847.5,4011.4,1799.7,3977z M4632.5,3659.2c-17.2-45.9-1709.3-2103.5-1720.7-2092.1c-5.7,7.7-168.4,444.1-361.8,970.4c-191.4,526.4-363.7,997.2-382.8,1048.9l-34.4,90h1253.7C4075.5,3676.5,4636.3,3668.8,4632.5,3659.2z M7852,3663.1c0-34.4-775.2-2092.1-786.7-2088.2c-17.2,7.6-1701.6,2076.8-1701.6,2092.1c0,5.7,560.8,9.6,1244.1,9.6C7293,3676.5,7852,3670.7,7852,3663.1z M5890,2480.2l872.8-1071.9l-880.5-5.7c-486.2-1.9-1278.6-1.9-1764.8,0l-880.5,5.7l876.6,1077.6c480.4,591.5,882.4,1073.8,890,1071.9C5011.5,3554,5411.5,3069.7,5890,2480.2z M2232.3,2432.3c206.7-562.7,375.2-1024,375.2-1027.9c0-3.8-459.4-5.7-1022.1-5.7h-1024l645,1031.7c354.1,568.5,647,1029.8,648.9,1027.9C1857.1,3456.4,2027.5,2995.1,2232.3,2432.3z M8849.2,2342.4l589.6-943.6H8403.2c-976.2,0-1033.6,1.9-1020.2,34.4c5.7,17.2,179.9,482.4,386.6,1033.6l373.2,999.2l59.3-90C8232.9,3324.3,8523.8,2859.2,8849.2,2342.4z M2756.7,1002.5c9.6-30.6,403.9-1104.4,872.8-2386.8c470.9-1282.4,851.8-2335.2,849.8-2339c-3.8-3.8-3430,4230.1-3820.5,4722l-44,55.5h1060.4h1062.3L2756.7,1002.5z M6870,1021.7c-5.7-24.9-1703.5-4574.6-1887.3-5062.7c-7.7-21.1-361.8,924.5-945.5,2517c-513,1403-932.2,2555.3-932.2,2564.8c0,7.7,849.8,13.4,1887.3,13.4C6782,1054.2,6879.6,1052.3,6870,1021.7z M9272.2,916.4c-61.3-76.6-941.7-1169.5-1956.2-2427C5656.5-3570.2,5371.3-3920.4,5407.7-3855.4c5.7,11.5,415.4,1104.4,909.2,2430.9c495.7,1326.4,907.3,2427,913,2446.2c13.4,30.6,82.3,32.5,1085.3,32.5h1070L9272.2,916.4z"/></g></g>
</svg>